
<svg xmlns="http://www.w3.org/2000/svg" viewBox="0 0 200 40">
  <path d="M20 10h160v20H20z" fill="white"/>
  <path d="M35.7 15h-5.8v10.4h3.1v-3.2h2.7c2.3 0 4.1-1.5 4.1-3.6S38 15 35.7 15zm-.3 4.8h-2.4v-2.3h2.4c.8 0 1.3.5 1.3 1.2 0 .6-.5 1.1-1.3 1.1zM45.2 25.4H48v-5.7c0-1.8-1.4-3.1-3.5-3.1-1.2 0-2.1.4-2.8 1.2v-.9h-2.8v8.5h2.8v-5c0-1 .7-1.5 1.5-1.5s1.5.5 1.5 1.5v5h.5zM56.5 25.4l-2.9-8.5h-3.3l4.4 10.8h3.6l4.4-10.8h-3l-3.2 8.5zM68.1 16.8v8.6H71v-8.6h3.2V15h-9.3v1.9h3.2v-.1zM83.8 21.6c0-2.8-2.2-4.9-5-4.9s-5 2.1-5 4.9 2.2 4.9 5 4.9 5-2.1 5-4.9zm-2.9 0c0 1.2-1 2.2-2.2 2.2s-2.2-1-2.2-2.2 1-2.2 2.2-2.2 2.2 1 2.2 2.2zM94.8 21.6c0-2.8-2.2-4.9-5-4.9s-5 2.1-5 4.9 2.2 4.9 5 4.9 5-2.1 5-4.9zm-2.9 0c0 1.2-1 2.2-2.2 2.2s-2.2-1-2.2-2.2 1-2.2 2.2-2.2 2.2 1 2.2 2.2zM104.8 16.9l-2.4 5.7-2.4-5.7h-3.2l4.1 8.5h2.9l4.1-8.5h-3.1zM131.7 16.9l-2.4 5.7-2.4-5.7h-3.2l4.1 8.5h2.9l4.1-8.5h-3.1zM141.5 16.9v-.3h-2.8v8.8h2.8v-4.4c0-1.5 1.7-2.3 2.8-1.2l2.2-2.2c-1.6-1.5-3.8-1.1-5 .7v-1.4zM156.5 21.6c0-2.8-2.2-4.9-5-4.9s-5 2.1-5 4.9 2.2 4.9 5 4.9 5-2.1 5-4.9zm-2.9 0c0 1.2-1 2.2-2.2 2.2s-2.2-1-2.2-2.2 1-2.2 2.2-2.2 2.2 1 2.2 2.2zM168.5 17.2v-.6h-2.8V22c0 2.1-1.3 2.1-2.2 1.9v2.1c3.8 0 5-1.5 5-4.3v-4.5z" fill="#000000"/>
  <path d="M117.3 15c-2.8 0-5 2.1-5 4.9v5.5h2.8v-2h4.5v2h2.8v-5.5c0-2.8-2.3-4.9-5.1-4.9zm2.2 6.1h-4.5v-1.2c0-1.2 1-2.2 2.2-2.2s2.2 1 2.2 2.2v1.2z" fill="#000000"/>
</svg>
